#!OML:ASF H:\Dans Jumps\Project 1\Capture day 1\Session 1\subject.ASF
:FULLY-SPECIFIED
:DEGREES
152
root 0.431113 17.4222 -14.5907 8.14874 -0.620153 -1.9012
lowerback 2.23607 -0.482791 0.881105
upperback 4.9681 -0.71183 2.11651
thorax 3.87885 -0.368363 1.68004
lowerneck -13.1882 0.822253 -1.3603
upperneck 30.9703 1.8078 -0.834869
head 12.4218 0.531542 0.177153
rclavicle -8.24956e-015 1.27222e-014
rhumerus -22.6973 -12.6495 -82.169
rradius 24.9542
rwrist 30.1284
rhand -20.1434 -26.9659
rfingers 7.12502
rthumb 6.20137 -56.8551
lclavicle -8.24956e-015 1.27222e-014
lhumerus -19.9874 -10.0685 91.614
lradius 23.7595
lwrist 8.39195
lhand -26.4361 -4.13993
lfingers 7.12502
lthumb 0.124541 25.8398
rfemur -21.3508 -3.24628 20.7302
rtibia 28.1576
rfoot -13.9789 -1.45416
rtoes 15.2725
lfemur -21.0541 7.92963 -18.2039
ltibia 27.453
lfoot -12.8306 2.88557
ltoes 2.11277
153
root 0.43316 17.411 -14.6157 8.2822 -0.666992 -1.9179
lowerback 2.44667 -0.467798 0.895019
upperback 5.02705 -0.688776 2.12637
thorax 3.82095 -0.356736 1.68429
lowerneck -13.2449 0.828843 -1.33743
upperneck 30.7516 1.82012 -0.873212
head 12.3454 0.537059 0.160297
rclavicle -1.19271e-015 -1.39149e-014
rhumerus -22.6896 -12.5946 -82.1169
rradius 24.9925
rwrist 30.0466
rhand -20.1507 -26.9632
rfingers 7.12502
rthumb 6.19433 -56.8526
lclavicle -1.19271e-015 -1.39149e-014
lhumerus -19.9929 -10.0687 91.5498
lradius 23.8172
lwrist 8.50946
lhand -26.4652 -4.17386
lfingers 7.12502
lthumb 0.0964059 25.8059
rfemur -21.81 -3.25115 20.7594
rtibia 28.5409
rfoot -14.0338 -1.41575
rtoes 15.1794
lfemur -21.5269 8.01869 -18.235
ltibia 27.8845
lfoot -12.9207 2.87653
ltoes 2.0728
154
root 0.435019 17.3991 -14.6412 8.41737 -0.718679 -1.93073
lowerback 2.66594 -0.450322 0.901436
upperback 5.08614 -0.662136 2.13507
thorax 3.75836 -0.343577 1.69152
lowerneck -13.305 0.834642 -1.31442
upperneck 30.5294 1.83128 -0.911956
head 12.2685 0.542056 0.143184
rclavicle -3.97569e-015 0
rhumerus -22.6889 -12.5404 -82.0622
rradius 25.0352
rwrist 29.9585
rhand -20.1546 -26.9673
rfingers 7.12502
rthumb 6.19055 -56.8569
lclavicle -3.97569e-015 0
lhumerus -20.0019 -10.0609 91.4832
lradius 23.8683
lwrist 8.62527
lhand -26.4941 -4.20585
lfingers 7.12502
lthumb 0.0685232 25.7739
rfemur -22.281 -3.24577 20.7849
rtibia 28.939
rfoot -14.0933 -1.38692
rtoes 15.0759
lfemur -22.0065 8.11554 -18.2715
ltibia 28.3226
lfoot -13.0138 2.86439
ltoes 2.03481
155
root 0.43656 17.3868 -14.6672 8.55273 -0.771705 -1.93601
lowerback 2.89439 -0.432095 0.895276
upperback 5.14605 -0.634291 2.14266
thorax 3.69163 -0.330263 1.70461
lowerneck -13.3669 0.839611 -1.29414
upperneck 30.3037 1.84162 -0.950071
head 12.1911 0.546494 0.126741
rclavicle -6.26172e-015 -1.74931e-014
rhumerus -22.6912 -12.4863 -82.005
rradius 25.0769
rwrist 29.8671
rhand -20.1619 -26.9654
rfingers 7.12502
rthumb 6.18356 -56.8551
lclavicle -6.26172e-015 -1.74931e-014
lhumerus -20.0095 -10.0378 91.4138
lradius 23.9086
lwrist 8.73586
lhand -26.5247 -4.23965
lfingers 7.12502
lthumb 0.0389377 25.7401
rfemur -22.7598 -3.23366 20.8031
rtibia 29.35
rfoot -14.1616 -1.36719
rtoes 14.9697
lfemur -22.492 8.21923 -18.3173
ltibia 28.7665
lfoot -13.1089 2.84776
ltoes 1.99274
156
root 0.437954 17.3739 -14.6935 8.68577 -0.828172 -1.93901
lowerback 3.13124 -0.412679 0.885326
upperback 5.20917 -0.604764 2.14863
thorax 3.62359 -0.316221 1.71808
lowerneck -13.4318 0.844939 -1.27382
upperneck 30.0721 1.8518 -0.986628
head 12.1122 0.551114 0.110932
rclavicle -5.56597e-015 2.26615e-014
rhumerus -22.6974 -12.4305 -81.9477
rradius 25.1218
rwrist 29.7675
rhand -20.1697 -26.9658
rfingers 7.12502
rthumb 6.17598 -56.8558
lclavicle -5.56597e-015 2.26615e-014
lhumerus -20.0152 -9.99956 91.3397
lradius 23.9394
lwrist 8.84265
lhand -26.5594 -4.27995
lfingers 7.12502
lthumb 0.00546973 25.6998
rfemur -23.2424 -3.21917 20.8194
rtibia 29.7733
rfoot -14.2392 -1.34933
rtoes 14.8585
lfemur -22.9794 8.32822 -18.3666
ltibia 29.2168
lfoot -13.2063 2.83173
ltoes 1.94424
157
root 0.439194 17.3604 -14.7203 8.81576 -0.886213 -1.94004
lowerback 3.37794 -0.393005 0.872415
upperback 5.27522 -0.574775 2.15285
thorax 3.55316 -0.302025 1.73132
lowerneck -13.4974 0.850946 -1.25394
upperneck 29.8347 1.8622 -1.02112
head 12.0316 0.556104 0.0960616
rclavicle 2.08724e-015 -1.19271e-014
rhumerus -22.7079 -12.374 -81.8903
rradius 25.1692
rwrist 29.6658
rhand -20.1754 -26.9681
rfingers 7.12502
rthumb 6.1705 -56.8582
lclavicle 2.08724e-015 -1.19271e-014
lhumerus -20.0206 -9.94434 91.2596
lradius 23.961
lwrist 8.93908
lhand -26.5914 -4.31098
lfingers 7.12502
lthumb -0.0254804 25.6688
rfemur -23.729 -3.20769 20.8346
rtibia 30.2095
rfoot -14.3252 -1.32783
rtoes 14.7465
lfemur -23.4697 8.44139 -18.419
ltibia 29.6749
lfoot -13.3066 2.8154
ltoes 1.8904
158
root 0.44041 17.3463 -14.7474 8.94469 -0.941831 -1.93637
lowerback 3.62934 -0.374569 0.857845
upperback 5.3445 -0.546391 2.153
thorax 3.48357 -0.288607 1.74117
lowerneck -13.5612 0.857633 -1.23587
upperneck 29.5893 1.87202 -1.05012
head 11.9477 0.561433 0.083515
rclavicle -1.98785e-015 2.5842e-014
rhumerus -22.7186 -12.3224 -81.8345
rradius 25.2124
rwrist 29.5665
rhand -20.1755 -26.9712
rfingers 7.12502
rthumb 6.17041 -56.8613
lclavicle -1.98785e-015 2.5842e-014
lhumerus -20.029 -9.87867 91.1717
lradius 23.9801
lwrist 9.03202
lhand -26.6173 -4.32001
lfingers 7.12502
lthumb -0.0504508 25.6597
rfemur -24.2226 -3.20846 20.8464
rtibia 30.6601
rfoot -14.4191 -1.29862
rtoes 14.63
lfemur -23.9671 8.55574 -18.4778
ltibia 30.1438
lfoot -13.4103 2.79538
ltoes 1.83643
159
root 0.441678 17.3313 -14.775 9.07173 -0.993603 -1.93172
lowerback 3.88677 -0.357478 0.846359
upperback 5.41554 -0.519681 2.15048
thorax 3.41254 -0.275852 1.74645
lowerneck -13.6243 0.865014 -1.21463
upperneck 29.3387 1.88176 -1.07918
head 11.8621 0.567138 0.0704256
rclavicle 2.88238e-015 5.96354e-015
rhumerus -22.7331 -12.2691 -81.7807
rradius 25.2523
rwrist 29.4595
rhand -20.1751 -26.9832
rfingers 7.12502
rthumb 6.17073 -56.8733
lclavicle 2.88238e-015 5.96354e-015
lhumerus -20.0435 -9.8081 91.0778
lradius 23.997
lwrist 9.12476
lhand -26.6451 -4.33964
lfingers 7.12502
lthumb -0.077301 25.6401
rfemur -24.724 -3.22001 20.8584
rtibia 31.1269
rfoot -14.5204 -1.26198
rtoes 14.5212
lfemur -24.4719 8.66785 -18.5386
ltibia 30.6256
lfoot -13.5176 2.77381
ltoes 1.78623
160
root 0.44311 17.3154 -14.803 9.19994 -1.0376 -1.92841
lowerback 4.1473 -0.343166 0.841695
upperback 5.48677 -0.496532 2.14668
thorax 3.34013 -0.26459 1.7465
lowerneck -13.6836 0.871704 -1.1972
upperneck 29.0816 1.88991 -1.10397
head 11.7735 0.572345 0.0593759
rclavicle -9.74045e-015 1.31198e-014
rhumerus -22.7546 -12.204 -81.7289
rradius 25.2937
rwrist 29.3419
rhand -20.1746 -26.9975
rfingers 7.12502
rthumb 6.17121 -56.8877
lclavicle -9.74045e-015 1.31198e-014
lhumerus -20.0643 -9.7357 90.9799
lradius 24.0133
lwrist 9.22086
lhand -26.6798 -4.35536
lfingers 7.12502
lthumb -0.110805 25.6244
rfemur -25.2379 -3.24662 20.8738
rtibia 31.6113
rfoot -14.6275 -1.21922
rtoes 14.4031
lfemur -24.989 8.77239 -18.5985
ltibia 31.1222
lfoot -13.6291 2.74977
ltoes 1.7508
161
root 0.444803 17.2984 -14.8312 9.32741 -1.07794 -1.92531
lowerback 4.41294 -0.33042 0.840869
upperback 5.55715 -0.475302 2.14301
thorax 3.26415 -0.254142 1.74447
lowerneck -13.7403 0.879491 -1.17701
upperneck 28.8207 1.90056 -1.13505
head 11.6835 0.578245 0.0458936
rclavicle -3.18055e-015 1.19271e-015
rhumerus -22.7841 -12.1231 -81.6754
rradius 25.3331
rwrist 29.2122
rhand -20.1762 -27.0197
rfingers 7.12502
rthumb 6.16971 -56.9098
lclavicle -3.18055e-015 1.19271e-015
lhumerus -20.0946 -9.65929 90.8819
lradius 24.0289
lwrist 9.32017
lhand -26.7098 -4.36269
lfingers 7.12502
lthumb -0.13977 25.617
rfemur -25.763 -3.28111 20.89
rtibia 32.1132
rfoot -14.7397 -1.17308
rtoes 14.2843
lfemur -25.5161 8.87174 -18.6596
ltibia 31.6337
lfoot -13.7456 2.72857
ltoes 1.7087
162
root 0.446765 17.2803 -14.8595 9.45763 -1.11551 -1.92672
lowerback 4.67805 -0.318691 0.848059
upperback 5.62654 -0.45528 2.14013
thorax 3.18758 -0.244019 1.73867
lowerneck -13.7971 0.88674 -1.15741
upperneck 28.5575 1.91078 -1.16726
head 11.5932 0.583775 0.0320858
rclavicle 7.15625e-015 -7.15625e-015
rhumerus -22.8218 -12.0299 -81.6205
rradius 25.3721
rwrist 29.0755
rhand -20.1763 -27.0484
rfingers 7.12502
rthumb 6.16965 -56.9386
lclavicle 7.15625e-015 -7.15625e-015
lhumerus -20.13 -9.58076 90.7826
lradius 24.0419
lwrist 9.42852
lhand -26.7309 -4.36105
lfingers 7.12502
lthumb -0.160219 25.6186
rfemur -26.3016 -3.32276 20.9119
rtibia 32.6305
rfoot -14.8537 -1.12307
rtoes 14.1542
lfemur -26.0545 8.96544 -18.7172
ltibia 32.1591
lfoot -13.8687 2.71216
ltoes 1.66608
163
root 0.448868 17.2613 -14.888 9.59314 -1.14825 -1.92741
lowerback 4.94168 -0.309203 0.854627
upperback 5.69356 -0.438242 2.13898
thorax 3.10964 -0.235439 1.73498
lowerneck -13.8512 0.893202 -1.14376
upperneck 28.2911 1.9213 -1.19982
head 11.5015 0.588827 0.0192482
rclavicle -3.37934e-015 1.51076e-014
rhumerus -22.8616 -11.9289 -81.5613
rradius 25.4008
rwrist 28.9445
rhand -20.1813 -27.0787
rfingers 7.12502
rthumb 6.16479 -56.969
lclavicle -3.37934e-015 1.51076e-014
lhumerus -20.1709 -9.49201 90.6834
lradius 24.0545
lwrist 9.54878
lhand -26.729 -4.32554
lfingers 7.12502
lthumb -0.158336 25.6541
rfemur -26.8551 -3.37028 20.9348
rtibia 33.1599
rfoot -14.9676 -1.0736
rtoes 14.0218
lfemur -26.6069 9.05772 -18.7778
ltibia 32.6953
lfoot -13.9972 2.69455
ltoes 1.61835
